<?xml version="1.0" standalone="no"?>
<!DOCTYPE svg PUBLIC "-//W3C//DTD SVG 20010904//EN"
 "http://www.w3.org/TR/2001/REC-SVG-20010904/DTD/svg10.dtd">
<svg version="1.0" xmlns="http://www.w3.org/2000/svg"
 width="1280.000000pt" height="1280.000000pt" viewBox="0 0 1280.000000 1280.000000"
 preserveAspectRatio="xMidYMid meet">
<metadata>
Created by potrace 1.16, written by Peter Selinger 2001-2019
</metadata>
<g transform="translate(0.000000,1280.000000) scale(0.100000,-0.100000)"
fill="#000000" stroke="none">
<path d="M5600 10962 c0 -4 -36 -23 -80 -42 -44 -19 -80 -37 -80 -42 0 -4 -7
-8 -15 -8 -15 0 -193 -79 -225 -100 -17 -11 -219 -110 -224 -110 -7 0 -355
-164 -499 -236 -27 -13 -55 -24 -62 -24 -7 0 -15 -3 -17 -7 -5 -12 -402 -206
-863 -422 -60 -29 -119 -57 -130 -63 -92 -52 -630 -308 -646 -308 -9 0 -5 -31
8 -70 4 -15 35 -151 78 -345 13 -60 36 -159 51 -220 14 -60 32 -140 39 -178 8
-37 16 -71 19 -75 4 -7 43 -180 51 -227 4 -24 41 -191 57 -255 6 -25 15 -50
19 -56 5 -6 7 -13 4 -15 -2 -3 5 -38 16 -79 11 -41 22 -86 25 -99 6 -29 35
-81 45 -81 4 0 5 -9 2 -21 -4 -16 -8 -17 -14 -7 -6 9 -9 6 -9 -11 0 -13 10
-32 22 -42 26 -23 34 -18 18 11 -10 18 -9 21 0 15 13 -8 13 -8 -6 70 -4 16 -2
25 6 25 7 0 10 -6 7 -12 -3 -10 9 -12 47 -9 56 4 66 12 66 54 0 20 5 27 20 27
12 0 25 10 30 23 16 37 36 57 59 57 20 0 21 5 21 80 l0 80 55 0 55 0 0 40 c0
36 3 40 25 40 23 0 25 4 25 40 l0 40 40 0 40 0 0 40 0 40 40 0 c39 0 40 1 41
38 0 20 0 56 -1 80 l-2 42 56 0 56 0 0 40 c0 36 2 40 26 40 l26 0 -4 78 c-3
42 -3 60 -1 39 4 -37 5 -38 41 -35 l37 3 3 64 c3 70 16 91 56 91 24 0 26 4 26
40 l0 40 40 0 c31 0 40 4 40 18 1 25 35 62 59 62 20 0 21 6 21 80 l0 80 40 0
40 0 0 40 0 40 40 0 c31 0 40 4 40 18 1 23 32 59 56 64 14 2 20 13 22 41 3 36
4 37 43 37 l39 0 0 80 0 80 55 0 55 0 0 40 c0 36 3 40 25 40 17 0 25 6 25 18
1 25 35 62 58 62 16 0 21 8 24 40 2 22 0 40 -4 40 -5 0 -8 18 -8 40 l0 40 45
0 45 0 0 40 0 40 40 0 c31 0 40 4 40 18 1 25 35 62 59 62 18 0 21 6 21 39 0
39 1 40 38 43 l37 3 3 78 3 77 54 0 55 0 0 40 c0 36 3 40 25 40 23 0 25 4 25
40 l0 40 40 0 c40 0 40 0 40 39 0 22 -6 42 -12 45 -10 5 -10 7 0 12 6 3 12 19
12 35 0 27 2 29 40 29 29 0 40 4 40 15 0 8 -4 15 -10 15 -5 0 -10 -6 -10 -12
0 -9 -3 -8 -9 2 -6 8 -7 18 -5 22 3 4 -1 8 -9 8 -8 0 -17 6 -20 14 -4 9 4 16
25 20 34 7 48 1 48 -20 0 -8 7 -14 15 -14 9 0 15 9 15 25 0 18 5 25 20 25 11
0 20 -4 20 -8 0 -5 7 -9 16 -9 25 0 62 43 66 74 2 17 8 27 17 25 8 -2 11 3 8
13 -4 9 -1 15 9 15 8 0 12 4 9 10 -9 14 -45 32 -45 22z"/>
<path d="M3760 10356 c-14 -8 -61 -35 -106 -60 -44 -25 -90 -46 -102 -46 -11
0 -24 -5 -27 -10 -3 -6 -27 -19 -53 -31 -144 -64 -370 -173 -995 -479 -71 -34
-125 -66 -120 -70 4 -5 67 -14 138 -21 l130 -12 160 77 c88 42 167 81 175 86
8 5 132 68 275 140 143 72 262 135 263 140 2 6 12 10 22 10 10 0 22 4 25 10 3
5 27 19 53 31 l47 21 -38 17 c-36 17 -40 31 -7 31 9 0 29 11 43 24 25 24 26
25 7 31 -29 9 -25 19 15 41 19 10 35 21 35 25 0 4 13 9 28 12 16 3 39 15 53
26 28 23 16 27 -21 7z"/>
<path d="M6880 8504 c-30 -14 -75 -34 -100 -44 -25 -10 -98 -43 -162 -74 -65
-31 -120 -56 -123 -56 -5 0 -263 -116 -493 -221 -35 -16 -65 -29 -67 -29 -2 0
-50 -22 -107 -48 -56 -27 -156 -73 -221 -102 -64 -29 -119 -56 -122 -60 -6
-10 76 -26 240 -48 l140 -19 200 94 c110 52 207 98 215 103 8 6 22 13 30 16
71 28 128 59 118 65 -15 10 4 38 76 112 31 31 56 61 56 65 0 4 9 13 20 20 11
7 20 19 20 27 0 9 10 15 23 16 l22 0 -22 11 -22 11 23 18 c13 11 27 19 31 19
9 0 231 108 270 132 44 26 18 22 -45 -8z"/>
<path d="M6084 6610 c4 -34 3 -46 -2 -30 -8 22 -10 19 -26 -34 -9 -32 -15 -60
-12 -63 4 -5 -8 -45 -34 -108 -22 -54 -38 -105 -50 -155 -7 -30 -19 -62 -26
-70 -7 -9 -14 -31 -16 -50 -1 -19 -8 -41 -14 -48 -12 -12 -40 -119 -35 -136 1
-4 -4 -15 -11 -23 -11 -13 -13 -13 -19 4 -7 17 -8 17 -8 -2 0 -11 4 -38 10
-60 6 -22 13 -62 15 -89 3 -27 12 -81 20 -120 8 -39 17 -82 19 -96 21 -112 89
-474 114 -600 17 -85 36 -185 43 -222 10 -57 18 -74 48 -102 34 -32 40 -34
190 -55 217 -31 219 -31 225 -21 3 5 -2 42 -11 82 -9 40 -28 138 -44 218 -43
225 -70 363 -77 390 -3 14 -5 29 -4 34 1 6 -2 19 -8 30 -6 12 -20 77 -31 146
-12 69 -25 142 -31 163 -5 20 -21 94 -34 165 -13 70 -47 237 -75 372 -28 135
-58 282 -67 327 -13 67 -19 81 -30 72 -9 -8 -13 -8 -13 -1 0 6 5 14 10 17 7 4
8 25 4 53 -9 69 -26 79 -20 12z"/>
<path d="M6380 1812 c-62 -31 -67 -116 -7 -153 58 -36 131 -8 142 55 9 47 -10
85 -50 101 -43 19 -43 19 -85 -3z"/>
<path d="M7102 1820 c-64 -27 -81 -98 -34 -142 37 -35 64 -41 106 -24 57 24
74 94 34 140 -26 29 -72 40 -106 26z"/>
</g>
</svg>
